<svg width="1.5em" height="1.5em" viewBox="0 0 33 32" fill="none" xmlns="http://www.w3.org/2000/svg">
<g clip-path="url(#clip0_765_14464)">
<path d="M16.5952 32C25.4318 32 32.5952 24.8366 32.5952 16C32.5952 7.16344 25.4318 0 16.5952 0C7.75866 0 0.595215 7.16344 0.595215 16C0.595215 24.8366 7.75866 32 16.5952 32Z" fill="#4467AD"/>
<path d="M17.8323 13.819C18.0954 13.5227 18.3064 13.2217 18.5813 12.968C18.9714 12.5878 19.4332 12.2888 19.9398 12.0886C20.4464 11.8884 20.9878 11.7909 21.5324 11.8018C22.1601 11.791 22.7862 11.8668 23.3932 12.027C24.7822 12.4299 25.5881 13.3852 25.9745 14.7411C26.2306 15.7571 26.3462 16.8035 26.3182 17.851C26.3182 20.0625 26.3182 22.2717 26.3182 24.488C26.3182 24.6942 26.2613 24.7488 26.0575 24.7464C24.9166 24.7369 23.778 24.7369 22.6418 24.7464C22.4403 24.7464 22.4047 24.6871 22.4047 24.5093C22.4047 22.406 22.4047 20.3027 22.4047 18.1994C22.4166 17.6711 22.3544 17.1437 22.2199 16.6326C21.9473 15.6845 21.2717 15.2104 20.2833 15.2602C18.9345 15.3313 18.2305 16.0021 18.0598 17.3745C18.018 17.7016 17.9974 18.0309 17.9982 18.3606C17.9982 20.4062 17.9982 22.4519 17.9982 24.4975C17.9982 24.7013 17.9461 24.7606 17.7375 24.7582C16.5926 24.7582 15.4453 24.7582 14.2981 24.7582C14.1132 24.7582 14.061 24.7108 14.061 24.5212C14.061 20.4726 14.061 16.4232 14.061 12.3731C14.061 12.1716 14.125 12.136 14.3147 12.136C15.405 12.1455 16.4946 12.1455 17.5834 12.136C17.7825 12.136 17.8347 12.2 17.8205 12.3896C17.8252 12.8495 17.8323 13.3331 17.8323 13.819Z" fill="#FEFEFE"/>
<path d="M11.5939 18.4463C11.5939 20.4492 11.5939 22.4522 11.5939 24.4551C11.5939 24.678 11.5394 24.7467 11.3095 24.7443C10.1693 24.7301 9.03155 24.7443 7.89378 24.7443C7.71126 24.7443 7.65674 24.6993 7.65674 24.5073C7.65674 20.4492 7.65674 16.3927 7.65674 12.3378C7.65674 12.1695 7.6994 12.1008 7.87718 12.1126C9.03155 12.1126 10.1859 12.1126 11.3403 12.1126C11.5631 12.1126 11.5915 12.1956 11.5915 12.3876C11.59 14.4071 11.5908 16.4267 11.5939 18.4463Z" fill="#FEFEFE"/>
<path d="M11.9067 8.09532C11.909 8.54561 11.7776 8.98646 11.529 9.36194C11.2805 9.73742 10.926 10.0306 10.5106 10.2044C10.0951 10.3781 9.63746 10.4245 9.1956 10.3378C8.75374 10.251 8.34758 10.035 8.02867 9.71708C7.70976 9.39917 7.49246 8.99371 7.40432 8.55212C7.31618 8.11053 7.36118 7.65271 7.53361 7.23673C7.70603 6.82075 7.99813 6.46535 8.37283 6.21562C8.74753 5.96588 9.18795 5.83306 9.63825 5.83399C10.2377 5.83708 10.8118 6.0761 11.2364 6.49931C11.6609 6.92252 11.9017 7.49588 11.9067 8.09532Z" fill="#FEFEFE"/>
</g>
<defs>
<clipPath id="clip0_765_14464">
<rect width="32" height="32" fill="white" transform="translate(0.595215)"/>
</clipPath>
</defs>
</svg>
