<svg width="1.5em" height="1.5em" viewBox="0 0 33 32" fill="none" xmlns="http://www.w3.org/2000/svg">
<g clip-path="url(#clip0_765_14450)">
<path d="M16.5 32C25.3366 32 32.5 24.8366 32.5 16C32.5 7.16344 25.3366 0 16.5 0C7.66344 0 0.5 7.16344 0.5 16C0.5 24.8366 7.66344 32 16.5 32Z" fill="#33CCFF"/>
<path d="M25.3365 10.546C24.7714 10.7841 24.179 10.9512 23.5728 11.0434C23.8622 10.9982 24.2783 10.4827 24.4773 10.2746C24.7388 9.95917 24.9383 9.59705 25.0652 9.20738C25.0652 9.20738 25.0652 9.13502 25.0652 9.11693C25.0501 9.1082 25.0329 9.1036 25.0154 9.1036C24.9979 9.1036 24.9808 9.1082 24.9657 9.11693C24.3045 9.46679 23.6028 9.7341 22.8764 9.91286C22.8547 9.92652 22.8296 9.93377 22.804 9.93377C22.7784 9.93377 22.7533 9.92652 22.7316 9.91286C22.676 9.84526 22.6156 9.78177 22.5508 9.72292C22.2465 9.46736 21.9048 9.25995 21.5377 9.10789C21.0448 8.90782 20.5131 8.82126 19.9821 8.85464C19.4674 8.89152 18.9658 9.03309 18.5078 9.27069C18.045 9.50786 17.638 9.84085 17.3139 10.2475C16.9766 10.6629 16.7357 11.1478 16.6084 11.6675C16.509 12.1631 16.509 12.6734 16.6084 13.1689C16.6084 13.2503 16.6084 13.2684 16.536 13.2503C13.7739 12.9765 11.2116 11.6873 9.34556 9.63248C9.26416 9.53299 9.21895 9.53299 9.15563 9.63248C8.77537 10.3207 8.62969 11.1142 8.74066 11.8926C8.85164 12.6711 9.21323 13.3922 9.77066 13.9468L10.2138 14.3357C9.73149 14.2983 9.26125 14.1661 8.83001 13.9468C8.73956 13.8925 8.70339 13.9468 8.69435 14.0191C8.68104 14.1545 8.68104 14.2908 8.69435 14.4261C8.77994 15.074 9.03605 15.6876 9.43651 16.2041C9.83697 16.7206 10.3674 17.1214 10.9736 17.3657C11.1208 17.4328 11.2757 17.4814 11.4349 17.5104C10.985 17.5984 10.5239 17.6136 10.0691 17.5556C9.96963 17.5556 9.93347 17.5556 9.96965 17.6732C10.2004 18.2843 10.5846 18.8258 11.0851 19.2455C11.5856 19.6653 12.1858 19.9492 12.8278 20.07C12.9634 20.07 13.09 20.07 13.2167 20.1243C12.6594 20.6223 11.9887 20.9763 11.263 21.1554C10.3128 21.4931 9.30106 21.6227 8.29638 21.5352C8.13358 21.5352 8.10643 21.5352 8.06121 21.5352C8.01599 21.5352 8.06123 21.5986 8.10645 21.6438C8.30543 21.7704 8.51345 21.897 8.72148 22.0056C9.35098 22.3418 10.0151 22.6087 10.7023 22.8015C12.4721 23.3341 14.3508 23.3931 16.1506 22.9725C17.9504 22.5519 19.6084 21.6665 20.9589 20.4047C21.9297 19.3504 22.6801 18.113 23.1663 16.7648C23.6524 15.4167 23.8644 13.9851 23.7899 12.5539C23.7899 12.4454 23.9255 12.3821 24.0069 12.3187C24.54 11.9077 25.0094 11.42 25.3998 10.8716C25.4604 10.7908 25.4923 10.6921 25.4903 10.5912C25.4089 10.4646 25.4089 10.4827 25.3365 10.546Z" fill="white"/>
</g>
<defs>
<clipPath id="clip0_765_14450">
<rect width="32" height="32" fill="white" transform="translate(0.5)"/>
</clipPath>
</defs>
</svg>
